<?xml version="1.0" encoding="UTF-8" standalone="no"?>
<svg
   xmlns:dc="http://purl.org/dc/elements/1.1/"
   xmlns:cc="http://creativecommons.org/ns#"
   xmlns:rdf="http://www.w3.org/1999/02/22-rdf-syntax-ns#"
   xmlns:svg="http://www.w3.org/2000/svg"
   xmlns="http://www.w3.org/2000/svg"
   xmlns:sodipodi="http://sodipodi.sourceforge.net/DTD/sodipodi-0.dtd"
   xmlns:inkscape="http://www.inkscape.org/namespaces/inkscape"
   version="1.1"
   x="0px"
   y="0px"
   viewBox="0 0 100 89.999998"
   enable-background="new 0 0 100 90.583"
   xml:space="preserve"
   id="svg3390"
   inkscape:version="0.91 r13725"
   sodipodi:docname="stop.svg"
   width="100"
   height="90"><metadata
     id="metadata3404"><rdf:RDF><cc:Work
         rdf:about=""><dc:format>image/svg+xml</dc:format><dc:type
           rdf:resource="http://purl.org/dc/dcmitype/StillImage" /><dc:title></dc:title></cc:Work></rdf:RDF></metadata><defs
     id="defs3402" /><sodipodi:namedview
     pagecolor="#ffffff"
     bordercolor="#666666"
     borderopacity="1"
     objecttolerance="10"
     gridtolerance="10"
     guidetolerance="10"
     inkscape:pageopacity="0"
     inkscape:pageshadow="2"
     inkscape:window-width="1598"
     inkscape:window-height="847"
     id="namedview3400"
     showgrid="false"
     inkscape:snap-page="false"
     fit-margin-top="0"
     fit-margin-left="0"
     fit-margin-right="0"
     fit-margin-bottom="0"
     inkscape:zoom="5.917225"
     inkscape:cx="50"
     inkscape:cy="33.968624"
     inkscape:window-x="0"
     inkscape:window-y="0"
     inkscape:window-maximized="1"
     inkscape:current-layer="svg3390" /><path
     d="m 11.364,17.617 -2.384,0 C 4.042,17.617 0,21.66 0,26.567 l 0,2.398 c 0,4.807 3.837,8.733 8.595,8.942 l 0,46.687 -1.266,0 c -2.722,0 -4.936,2.212 -4.936,4.938 l 15.277,0 c 0,-2.727 -2.223,-4.938 -4.954,-4.938 l -0.971,0 0,-46.686 c 4.761,-0.205 8.571,-4.135 8.571,-8.943 l 0,-2.398 c -10e-4,-4.907 -4.013,-8.95 -8.952,-8.95 z"
     id="path3392"
     inkscape:connector-curvature="0" /><path
     d="m 90.192,6.5619998 -16.133,0 c 0,-3.951 -3.193,-7.14499998 -7.152,-7.14499998 l -7.787,0 c -3.953,0 -7.151,3.19399998 -7.151,7.14499998 l -15.903,0 C 30.634,6.5619998 26.009,10.99 26.009,16.414 l 0,56.947 c 0,3.658 2.815,6.625 6.448,6.625 l 1.765,0 0,3.402 c 0,3.657 2.94,6.612 6.626,6.612 3.636,0 6.599,-2.952 6.599,-6.612 l 0,-3.402 30.899,0 0,3.402 c 0,3.657 2.955,6.612 6.612,6.612 3.658,0 6.628,-2.952 6.628,-6.612 l 0,-3.402 1.765,0 c 3.637,0 6.649,-2.967 6.649,-6.625 l 0,-56.947 C 100.003,10.99 95.618,6.5619998 90.192,6.5619998 Z M 30.899,16.42 c 0,-2.839 2.316,-5.153 5.178,-5.153 l 54.11,0 c 2.836,0 5.151,2.312 5.151,5.153 l 0,0.732 c 0,2.778 -2.367,5.125 -5.151,5.125 l -54.11,0 c -2.86,0 -5.178,-2.294 -5.178,-5.125 l 0,-0.732 z m 5.295,55.79 c -3.249,0 -5.888,-2.623 -5.888,-5.888 0,-3.247 2.64,-5.886 5.888,-5.886 3.248,0 5.9,2.639 5.9,5.886 0,3.265 -2.652,5.888 -5.9,5.888 z M 36.077,50.484 c -2.86,0 -5.178,-2.295 -5.178,-5.129 l 0,-14.268 c 0,-2.824 2.316,-5.137 5.178,-5.137 l 54.11,0 c 2.836,0 5.151,2.313 5.151,5.137 l 0,14.268 c 0,2.776 -2.367,5.129 -5.151,5.129 l -54.11,0 z M 89.821,72.21 c -3.269,0 -5.91,-2.623 -5.91,-5.888 0,-3.247 2.642,-5.886 5.91,-5.886 3.247,0 5.891,2.639 5.891,5.886 0,3.265 -2.644,5.888 -5.891,5.888 z"
     id="path3394"
     inkscape:connector-curvature="0" /></svg>